<?xml version="1.0" encoding="UTF-8"?>
<svg version="1.1" xmlns="http://www.w3.org/2000/svg" width="48" height="48">
<path d="M0 0 C0.78375 0.04125 1.5675 0.0825 2.375 0.125 C2.045 1.445 1.715 2.765 1.375 4.125 C0.715 4.125 0.055 4.125 -0.625 4.125 C-0.625 13.365 -0.625 22.605 -0.625 32.125 C0.035 32.125 0.695 32.125 1.375 32.125 C1.36976318 31.3729126 1.36452637 30.6208252 1.35913086 29.84594727 C1.33842773 26.45980658 1.32536123 23.07367916 1.3125 19.6875 C1.30412109 18.50349609 1.29574219 17.31949219 1.28710938 16.09960938 C1.28388672 14.97490234 1.28066406 13.85019531 1.27734375 12.69140625 C1.27210693 11.64927979 1.26687012 10.60715332 1.26147461 9.53344727 C1.375 7.125 1.375 7.125 2.375 6.125 C4.22869611 6.03762355 6.08567541 6.01801847 7.94140625 6.02734375 C9.06611328 6.03056641 10.19082031 6.03378906 11.34960938 6.03710938 C12.53361328 6.04548828 13.71761719 6.05386719 14.9375 6.0625 C16.12537109 6.06701172 17.31324219 6.07152344 18.53710938 6.07617188 C21.48312226 6.08800325 24.42903681 6.10448713 27.375 6.125 C27.375 5.465 27.375 4.805 27.375 4.125 C20.115 3.795 12.855 3.465 5.375 3.125 C5.375 2.135 5.375 1.145 5.375 0.125 C9.33327235 0.06714353 13.2914367 0.03145283 17.25 0 C18.37792969 -0.01675781 19.50585938 -0.03351562 20.66796875 -0.05078125 C21.74433594 -0.05722656 22.82070313 -0.06367187 23.9296875 -0.0703125 C24.92468262 -0.08078613 25.91967773 -0.09125977 26.94482422 -0.10205078 C29.375 0.125 29.375 0.125 31.375 2.125 C33.44098429 6.19247754 33.62066074 9.61400742 33.60546875 14.140625 C33.60501053 14.79705994 33.60455231 15.45349487 33.6040802 16.12982178 C33.6010741 17.50811588 33.59323731 18.88640708 33.58081055 20.26464844 C33.56243681 22.38228253 33.56030188 24.49948163 33.56054688 26.6171875 C33.52260674 36.97739326 33.52260674 36.97739326 32.375 38.125 C28.19135163 38.36817111 24.00170446 38.3535673 19.81176758 38.36523438 C17.71329216 38.37488143 15.61582093 38.40586199 13.51757812 38.4375 C12.17448497 38.44403598 10.83138481 38.44928411 9.48828125 38.453125 C7.65970581 38.46714355 7.65970581 38.46714355 5.79418945 38.48144531 C1.85740484 38.07104149 -1.74649816 37.00350184 -4.625 34.125 C-4.73817284 31.77271681 -4.78916537 29.45088052 -4.79296875 27.09765625 C-4.79629715 26.39354111 -4.79962555 25.68942596 -4.80305481 24.963974 C-4.80812655 23.47183894 -4.81046306 21.9796925 -4.81030273 20.48754883 C-4.81248759 18.20049393 -4.83063549 15.91392247 -4.84960938 13.62695312 C-4.85254354 12.17968916 -4.85452818 10.73242289 -4.85546875 9.28515625 C-4.86265427 8.59865494 -4.86983978 7.91215363 -4.87724304 7.20484924 C-4.8435736 0.23064636 -4.8435736 0.23064636 0 0 Z " fill="#8EC8F7" transform="translate(10.625,5.875)"/>
<path d="M0 0 C3.95827235 -0.05785647 7.9164367 -0.09354717 11.875 -0.125 C13.00292969 -0.14175781 14.13085938 -0.15851562 15.29296875 -0.17578125 C16.36933594 -0.18222656 17.44570313 -0.18867187 18.5546875 -0.1953125 C19.54968262 -0.20578613 20.54467773 -0.21625977 21.56982422 -0.22705078 C24 0 24 0 26 2 C26.39948471 6.40001337 26.32901561 10.81458162 26.31567383 15.23071289 C26.31251683 17.42579921 26.33595761 19.61953385 26.36132812 21.81445312 C26.36360143 23.20833163 26.36430447 24.60221377 26.36328125 25.99609375 C26.36626221 27.26638428 26.36924316 28.5366748 26.37231445 29.84545898 C26 33 26 33 24.64526367 34.92602539 C22.3813065 36.40386299 20.64294802 36.21429308 18 36 C18 35.01 18 34.02 18 33 C19.98 32.505 19.98 32.505 22 32 C22 22.76 22 13.52 22 4 C14.74 3.67 7.48 3.34 0 3 C0 2.01 0 1.02 0 0 Z " fill="#181A40" transform="translate(16,6)"/>
<path d="M0 0 C0.78375 0.04125 1.5675 0.0825 2.375 0.125 C2.045 1.445 1.715 2.765 1.375 4.125 C0.715 4.125 0.055 4.125 -0.625 4.125 C-0.625 13.365 -0.625 22.605 -0.625 32.125 C4.985 32.455 10.595 32.785 16.375 33.125 C16.375 34.115 16.375 35.105 16.375 36.125 C13.25007749 36.18291844 10.12529234 36.21856746 7 36.25 C6.11054688 36.26675781 5.22109375 36.28351562 4.3046875 36.30078125 C3.02851563 36.31044922 3.02851563 36.31044922 1.7265625 36.3203125 C0.54827881 36.33602295 0.54827881 36.33602295 -0.65380859 36.35205078 C-2.625 36.125 -2.625 36.125 -4.625 34.125 C-4.88378906 30.9921875 -4.88378906 30.9921875 -4.890625 27 C-4.89253845 26.2972998 -4.8944519 25.59459961 -4.89642334 24.87060547 C-4.89778475 23.38443646 -4.89409132 21.89825555 -4.88574219 20.41210938 C-4.87504154 18.13384354 -4.88563839 15.85636623 -4.8984375 13.578125 C-4.8971159 12.13541492 -4.89455349 10.69270534 -4.890625 9.25 C-4.88836914 7.93257812 -4.88611328 6.61515625 -4.88378906 5.2578125 C-4.56015464 1.34000414 -4.02772278 0.19179632 0 0 Z " fill="#17183F" transform="translate(10.625,5.875)"/>
<path d="M0 0 C0.99 0.33 1.98 0.66 3 1 C3.6875 3.0625 3.6875 3.0625 4 5 C4.66 5 5.32 5 6 5 C6.66 3.35 7.32 1.7 8 0 C8.66 0 9.32 0 10 0 C9.41892368 3.7602985 8.34800504 6.53035032 6.4375 9.8125 C5.98246094 10.60269531 5.52742188 11.39289062 5.05859375 12.20703125 C4.53458984 13.09455078 4.53458984 13.09455078 4 14 C3.34 14 2.68 14 2 14 C2.04125 12.9275 2.0825 11.855 2.125 10.75 C2.00780624 7.23418706 1.67021593 5.92287789 0 3 C0 2.01 0 1.02 0 0 Z " fill="#1F244B" transform="translate(19,17)"/>
</svg>
